<svg id="图层_1" data-name="图层 1" xmlns="http://www.w3.org/2000/svg" xmlns:xlink="http://www.w3.org/1999/xlink" viewBox="0 0 29.61 49.74"><defs><style>.cls-1{fill:url(#未命名的渐变_651);}.cls-2{fill:url(#未命名的渐变_173);}.cls-3{fill:url(#未命名的渐变_1472);}.cls-4{fill:url(#未命名的渐变_573);}</style><linearGradient id="未命名的渐变_651" x1="16.58" y1="49.87" x2="16.61" y2="49.87" gradientUnits="userSpaceOnUse"><stop offset="0.29" stop-color="#0000e7"/><stop offset="0.84" stop-color="#a28bff"/></linearGradient><linearGradient id="未命名的渐变_173" x1="-1.61" y1="-17.44" x2="59.5" y2="41.67" gradientUnits="userSpaceOnUse"><stop offset="0" stop-color="#5409ff"/><stop offset="1"/></linearGradient><linearGradient id="未命名的渐变_1472" x1="16.17" y1="34.45" x2="36.27" y2="34.45" gradientUnits="userSpaceOnUse"><stop offset="0.28" stop-color="#00a0e7"/><stop offset="0.31" stop-color="#02a5e9"/><stop offset="0.51" stop-color="#0ebff5"/><stop offset="0.69" stop-color="#15cefc"/><stop offset="0.83" stop-color="#17d4ff"/></linearGradient><linearGradient id="未命名的渐变_573" x1="6.66" y1="25.04" x2="16.5" y2="25.04" gradientUnits="userSpaceOnUse"><stop offset="0" stop-color="#1daeff"/><stop offset="1" stop-color="#00a8e7"/></linearGradient></defs><path class="cls-1" d="M16.61,49.87Z" transform="translate(-6.66 -0.13)"/><path class="cls-2" d="M16.61.13l-.07,0,.07,0Z" transform="translate(-6.66 -0.13)"/><path class="cls-3" d="M31.3,26a36.22,36.22,0,0,0-14.92-7v9.28c3.84.49,10.94,3.5,10.94,6.64s-7.1,5.31-10.94,5.66l-.21,3.81.21,5.4v0h.23a22,22,0,0,0,6.78-1.41A26.83,26.83,0,0,0,31.3,44c2.92-2.42,5-5.48,5-9S34.21,28.51,31.3,26Z" transform="translate(-6.66 -0.13)"/><path class="cls-4" d="M16.5,44.26,16.38,5.09h0V.25L8.65,4.11l0,.48H8.55L6.8,43.83h0l-.19,4.05,9.72,1.94V44.39l-.16-.14Z" transform="translate(-6.66 -0.13)"/></svg>