<!-- <svg xmlns="http://www.w3.org/2000/svg" width="19" height="19" viewBox="-2 3.5 23 25">
  <g id="月亮" transform="translate(128.07 139.619) rotate(146)" fill="#f3ee44">
    <path d="M 23.0847282409668 179.1044158935547 C 21.73977470397949 178.589111328125 20.53506278991699 177.7403564453125 19.6063232421875 176.6382293701172 C 18.3577938079834 175.1567077636719 17.67020416259766 173.2821807861328 17.67020416259766 171.3600006103516 C 17.67020416259766 166.7753143310547 21.49176406860352 163.0453948974609 26.1891040802002 163.0453948974609 C 28.21199607849121 163.0453948974609 30.14433097839355 163.7427825927734 31.66803741455078 164.9932861328125 C 31.5251636505127 164.9870452880859 31.38209342956543 164.9839172363281 31.23900413513184 164.9839172363281 C 25.99026298522949 164.9839172363281 21.7201042175293 169.1624298095703 21.7201042175293 174.2985076904297 C 21.7201042175293 176.0000305175781 22.19761276245117 177.6624450683594 23.0847282409668 179.1044158935547 Z" stroke="none"/>
    <path d="M 21.95979309082031 177.9991760253906 C 21.47530555725098 176.8326721191406 21.2201042175293 175.5760498046875 21.2201042175293 174.2985076904297 C 21.2201042175293 169.2589874267578 25.11797904968262 165.0943450927734 30.11519622802734 164.5452575683594 C 28.93046379089355 163.8963928222656 27.58268356323242 163.5453948974609 26.1891040802002 163.5453948974609 C 21.76746368408203 163.5453948974609 18.17020416259766 167.0510101318359 18.17020416259766 171.3600006103516 C 18.17020416259766 173.1644439697266 18.81600379943848 174.9245300292969 19.98866271972656 176.3160400390625 C 20.54990005493164 176.9820404052734 21.21813583374023 177.5496826171875 21.95979309082031 177.9991760253906 M 24.35379409790039 179.9919586181641 L 24.35091400146484 179.9913787841797 C 22.35080337524414 179.5867004394531 20.5300235748291 178.5102996826172 19.22397422790527 176.9604339599609 C 17.89957427978516 175.3888702392578 17.17020416259766 173.3999328613281 17.17020416259766 171.3600006103516 C 17.17020416259766 166.4996185302734 21.216064453125 162.5453948974609 26.1891040802002 162.5453948974609 C 28.84563255310059 162.5453948974609 31.35498428344727 163.6829986572266 33.07372283935547 165.6664886474609 C 32.4766731262207 165.5458831787109 31.85970306396484 165.4839172363281 31.23900413513184 165.4839172363281 C 26.26596260070801 165.4839172363281 22.2201042175293 169.4381256103516 22.2201042175293 174.2985076904297 C 22.2201042175293 176.3812103271484 22.9771842956543 178.4023895263672 24.35187339782715 179.98974609375 L 24.35379409790039 179.9919586181641 Z" stroke="none" fill="#707070"/>
  </g>
</svg> -->

<svg version="1.1" id="Capa_1" xmlns="http://www.w3.org/2000/svg" xmlns:xlink="http://www.w3.org/1999/xlink" x="0px" y="0px"
	 viewBox="-200 0 700 700" style="enable-background: new 0 0 520 520;" xml:space="preserve">
<path style="fill: #FFD93B;" d="M146.88,375.528c126.272,0,228.624-102.368,228.624-228.64c0-55.952-20.16-107.136-53.52-146.88
	C425.056,33.096,499.696,129.64,499.696,243.704c0,141.392-114.608,256-256,256c-114.064,0-210.608-74.64-243.696-177.712
	C39.744,355.368,90.944,375.528,146.88,375.528z"/>
<path style="fill: #F4C534;" d="M401.92,42.776c34.24,43.504,54.816,98.272,54.816,157.952c0,141.392-114.608,256-256,256
	c-59.68,0-114.448-20.576-157.952-54.816c46.848,59.472,119.344,97.792,200.928,97.792c141.392,0,256-114.608,256-256
	C499.712,162.12,461.392,89.64,401.92,42.776z"/>
<g>
	<polygon style="fill: #FFD83B;" points="128.128,99.944 154.496,153.4 213.472,161.96 170.8,203.56 180.864,262.296
		128.128,234.568 75.376,262.296 85.44,203.56 42.768,161.96 101.744,153.4"/>
	<polygon style="fill: #FFD83B;" points="276.864,82.84 290.528,110.552 321.104,114.984 298.976,136.552 304.208,166.984
		276.864,152.616 249.52,166.984 254.752,136.552 232.624,114.984 263.2,110.552"/>
</g>
</svg>
